DataType=double																
version=3																
OpenSimVersion=4.4-2022-07-23-0e9fedc																
endheader																
time	InvAntDelt	InvMedDelt	InvPosDelt	InvUpperTrap	NinvAntDelt	NinvMedDelt	NinvPosDelt	NinvUpperTrap	InvAntDelt	InvMedDelt	InvPosDelt	InvUpperTrap	NinvAntDelt	NinvMediDelt	NinvPosDelt	NinvUpperTrap
0.365	233	125	1627	112	125	11	171	24	292	-143	1191	-157	11	-25	-145	-20
0.36525	234	126	1617	113	124	7	173	28	289	-141	1156	-162	14	-16	-141	-20
0.3655	239	123	1611	113	121	7	175	27	297	-142	1133	-167	15	-6	-144	-22
0.36575	235	125	1606	114	118	10	171	26	298	-134	1111	-171	17	3	-145	-25
0.366	235	130	1596	113	119	10	173	24	303	-130	1081	-175	23	11	-145	-23
0.36625	238	124	1584	118	115	10	174	26	309	-126	1046	-185	26	14	-139	-23
0.3665	239	120	1576	116	112	15	172	25	318	-120	1001	-195	32	21	-137	-24
0.36675	242	127	1567	114	111	10	170	23	321	-111	946	-207	36	24	-138	-27
0.367	241	126	1555	125	109	10	168	24	320	-103	877	-213	41	23	-137	-26
0.36725	245	120	1545	121	108	13	166	24	322	-100	800	-225	39	17	-132	-25
0.3675	243	127	1528	122	106	12	167	24	323	-87	714	-241	36	15	-137	-23
0.36775	247	126	1516	122	105	14	166	22	327	-78	615	-248	42	7	-135	-24
0.368	249	121	1501	128	105	14	163	25	330	-71	509	-253	45	3	-133	-25
0.36825	247	118	1485	130	102	17	165	25	330	-64	398	-261	44	0	-133	-18
0.3685	245	119	1464	131	98	18	165	25	329	-54	284	-266	44	-7	-134	-18
0.36875	255	116	1442	128	98	14	163	21	338	-45	173	-265	45	-17	-134	-20
0.369	258	116	1422	134	96	15	158	22	344	-46	70	-266	44	-26	-130	-20
0.36925	254	115	1402	137	98	13	162	22	344	-47	-31	-265	40	-32	-127	-20
0.3695	256	113	1377	138	95	17	162	21	350	-42	-122	-263	38	-42	-122	-22
0.36975	262	111	1358	137	96	19	158	20	359	-40	-190	-258	35	-48	-123	-24
0.37	260	112	1335	142	93	18	156	23	364	-40	-250	-252	37	-56	-120	-24
0.37025	262	108	1321	145	94	12	161	19	374	-39	-293	-247	34	-56	-115	-24
0.3705	265	103	1305	142	87	16	158	21	378	-32	-312	-244	36	-60	-114	-22
0.37075	264	109	1283	143	89	17	157	17	384	-29	-319	-235	36	-63	-115	-19
0.371	266	105	1265	150	89	18	154	20	390	-30	-315	-229	37	-67	-110	-18
0.37125	268	100	1255	148	89	17	155	22	395	-25	-302	-226	36	-73	-109	-18
0.3715	269	103	1238	149	87	20	152	20	402	-17	-288	-221	36	-79	-109	-15
0.37175	274	102	1220	151	89	20	151	18	410	-15	-273	-203	35	-85	-110	-15
0.372	277	97	1206	154	91	19	159	20	413	-13	-261	-191	34	-85	-108	-11
0.37225	274	95	1192	153	87	26	151	21	416	-9	-250	-180	31	-87	-106	-6
0.3725	275	96	1172	155	86	21	150	19	424	-5	-236	-165	32	-91	-105	-6
0.37275	284	92	1153	153	89	18	148	18	430	-2	-219	-146	28	-97	-106	-4
0.373	289	88	1146	150	87	17	148	17	433	1	-197	-124	21	-102	-106	-2
0.37325	286	91	1127	152	87	23	143	19	433	0	-173	-107	17	-103	-104	-1
0.3735	287	89	1112	150	90	20	147	15	436	4	-157	-90	17	-105	-104	1
0.37375	293	86	1094	148	90	18	147	17	441	5	-146	-68	16	-112	-104	2
0.374	300	81	1081	147	90	22	144	16	442	7	-137	-49	12	-116	-102	-1
0.37425	297	86	1065	149	89	21	145	15	441	10	-137	-32	8	-116	-102	1
0.3745	301	84	1055	140	90	19	145	12	443	11	-149	-17	13	-120	-103	1
0.37475	303	82	1034	140	92	20	142	17	440	10	-168	-2	13	-126	-96	2
0.375	302	79	1018	142	89	16	143	16	442	4	-179	13	14	-127	-98	0
0.37525	303	76	1005	138	89	20	142	14	441	7	-184	27	9	-133	-98	2
0.3755	308	78	993	128	92	17	138	14	441	8	-178	43	12	-137	-98	2
0.37575	311	79	978	131	89	19	138	17	435	8	-169	61	12	-141	-99	4
0.376	311	77	964	134	90	17	138	13	433	9	-140	81	11	-149	-102	6
0.37625	313	73	950	133	92	18	138	13	425	13	-102	100	7	-142	-100	5
0.3765	314	73	935	130	93	20	136	13	422	14	-55	112	6	-143	-105	3
0.37675	318	75	917	129	92	20	134	15	416	25	-1	120	6	-145	-110	4
0.377	319	78	903	131	96	16	136	13	410	33	58	131	5	-145	-112	3
0.37725	322	73	892	132	94	20	134	16	401	45	112	138	5	-143	-114	1
0.3775	321	72	881	135	97	23	131	16	399	48	168	141	7	-139	-116	-2
0.37775	320	73	869	132	97	20	132	13	394	54	223	146	7	-141	-124	7
0.378	323	69	858	130	98	16	137	13	392	63	272	153	7	-144	-124	8
0.37825	329	67	845	132	94	13	132	15	387	77	313	169	8	-142	-125	7
0.3785	328	73	836	133	90	17	132	12	380	81	348	192	7	-142	-126	6
0.37875	330	69	832	131	98	16	132	10	376	86	372	220	5	-139	-132	10
0.379	328	71	825	135	103	16	127	13	364	93	387	244	8	-139	-131	8
0.37925	327	71	819	139	100	13	131	12	357	97	396	268	8	-130	-135	11
0.3795	328	74	812	139	97	15	133	11	350	102	402	294	7	-128	-139	10
0.37975	335	71	804	140	101	17	131	10	347	108	412	314	3	-123	-146	12
0.38	334	73	795	147	101	17	131	12	341	108	424	338	1	-118	-155	11
0.38025	332	73	796	149	102	14	134	12	332	106	446	363	2	-115	-167	12
0.3805	329	77	791	152	102	14	133	13	322	113	456	387	1	-106	-182	10
0.38075	327	77	782	156	100	14	134	11	316	114	458	411	4	-104	-194	7
0.381	330	79	775	160	102	15	134	13	304	113	451	431	5	-101	-205	13
0.38125	328	74	767	166	100	14	140	13	298	105	430	450	4	-96	-219	14
0.3815	328	67	764	170	98	13	137	16	288	101	400	465	2	-91	-232	13
0.38175	327	76	758	172	97	15	139	12	280	98	362	477	0	-88	-245	14
0.382	327	79	751	183	99	10	139	5	269	91	309	486	-4	-81	-257	13
0.38225	324	81	741	189	98	14	140	13	260	82	241	493	-10	-75	-265	16
0.3825	325	77	735	191	98	12	143	13	251	66	168	495	-13	-76	-274	16
0.38275	322	82	726	196	94	14	145	14	243	56	80	490	-15	-65	-284	17
0.383	320	79	715	199	95	13	148	12	233	46	-25	495	-11	-57	-293	13
0.38325	321	78	703	207	95	17	146	16	219	31	-129	493	-9	-50	-302	21
0.3835	314	76	694	211	93	12	155	15	210	15	-239	491	-8	-47	-311	26
0.38375	317	71	682	212	93	8	156	13	200	2	-354	492	-11	-43	-320	25
0.384	315	73	683	219	86	9	157	13	189	-11	-467	498	-10	-40	-328	25
0.38425	313	73	681	223	93	12	157	12	176	-27	-585	499	-9	-35	-330	22
0.3845	310	70	677	228	92	11	160	13	161	-37	-716	508	-11	-34	-331	26
0.38475	309	69	683	231	92	10	165	14	147	-49	-834	515	-10	-34	-325	27
0.385	303	72	687	238	87	12	170	13	134	-59	-961	518	-2	-30	-315	29
0.38525	301	67	690	240	87	8	174	13	129	-67	-1080	523	3	-24	-312	27
0.3855	300	71	695	246	84	8	170	14	110	-66	-1192	528	6	-19	-314	32
0.38575	297	69	702	251	84	14	171	18	95	-78	-1279	531	7	-18	-321	34
0.386	294	72	715	257	82	8	177	16	80	-80	-1346	536	7	-13	-341	31
0.38625	284	69	728	257	79	10	182	17	65	-83	-1392	535	10	-5	-364	37
0.3865	285	68	739	263	78	10	180	13	52	-83	-1416	544	10	-2	-383	40
0.38675	282	68	745	269	78	9	184	15	30	-88	-1430	535	12	-2	-401	48
0.387	278	70	762	272	76	7	191	16	17	-90	-1429	531	12	4	-419	54
0.38725	270	65	770	275	74	10	195	17	5	-91	-1433	521	14	5	-429	62
0.3875	268	71	780	280	74	7	197	18	-13	-93	-1437	510	18	8	-437	62
0.38775	262	70	791	284	75	8	201	19	-28	-95	-1446	498	14	11	-448	72
0.388	260	71	802	292	72	11	204	20	-42	-96	-1447	493	15	12	-447	69
0.38825	257	68	812	290	69	11	205	23	-56	-93	-1452	474	20	12	-439	75
0.3885	252	69	827	292	69	10	211	20	-71	-99	-1451	456	23	14	-421	78
0.38875	254	70	834	292	70	10	215	24	-78	-96	-1451	434	21	13	-391	81
0.389	249	69	845	299	71	10	219	23	-95	-99	-1438	406	27	10	-352	82
0.38925	245	72	854	296	67	11	220	23	-108	-97	-1420	379	28	9	-307	84
0.3895	241	73	864	302	65	12	220	23	-119	-103	-1406	352	28	7	-251	87
0.38975	240	77	873	299	64	12	219	25	-132	-100	-1390	327	29	3	-192	85
0.39	236	69	882	301	66	14	216	30	-146	-106	-1377	302	29	5	-114	90
0.39025	239	68	890	301	61	13	216	26	-158	-107	-1360	287	26	7	-32	91
0.3905	234	73	896	300	61	13	213	28	-171	-106	-1361	265	25	1	67	88
0.39075	234	75	908	298	63	13	212	28	-183	-108	-1355	253	27	-2	172	85
0.391	237	68	909	299	60	11	210	32	-192	-110	-1356	232	24	-10	283	83
0.39125	233	77	919	301	60	11	212	30	-214	-109	-1361	219	19	-8	384	79
0.3915	231	75	925	296	55	14	216	34	-234	-108	-1365	198	18	-14	468	75
0.39175	233	74	935	294	57	18	218	35	-248	-111	-1364	189	19	-13	542	72
0.392	236	75	937	292	55	12	225	33	-261	-111	-1358	175	18	-13	599	70
0.39225	233	73	948	292	56	9	232	32	-282	-116	-1351	160	16	-11	649	69
0.3925	236	72	956	287	55	14	242	32	-292	-119	-1341	141	14	-16	691	63
0.39275	236	76	958	285	54	16	250	38	-311	-124	-1331	130	14	-15	729	62
0.393	236	77	962	280	52	12	259	36	-326	-131	-1308	122	14	-15	746	58
0.39325	237	74	972	283	53	13	264	35	-345	-134	-1287	127	10	-19	753	50
0.3935	238	81	978	278	50	11	272	36	-358	-139	-1252	141	7	-23	725	47
0.39375	242	80	981	277	51	17	278	38	-377	-145	-1214	181	3	-19	680	43
0.394	242	79	979	274	51	12	286	40	-394	-146	-1165	231	3	-21	618	41
0.39425	247	78	989	275	49	11	289	36	-411	-149	-1118	293	3	-17	550	34
0.3945	244	81	990	276	49	12	295	36	-428	-149	-1077	346	5	-13	485	33
0.39475	256	82	991	276	50	10	295	38	-438	-145	-1036	393	0	-11	432	24
0.395	255	84	992	280	51	10	305	33	-453	-144	-1001	419	2	-9	400	17
0.39525	257	78	990	281	45	12	301	40	-465	-138	-972	424	0	-2	370	11
0.3955	252	88	988	284	41	11	302	34	-478	-129	-943	408	1	3	344	4
0.39575	263	84	988	285	46	12	301	33	-493	-118	-919	386	-3	8	322	-5
0.396	270	84	983	285	43	12	301	35	-508	-102	-888	350	-3	8	282	-12
0.39625	274	86	986	292	43	11	301	33	-523	-80	-864	329	-6	14	238	-19
0.3965	271	84	985	289	40	13	302	35	-536	-61	-841	305	-2	22	190	-20
0.39675	283	83	976	283	42	10	298	33	-549	-35	-824	292	0	25	137	-24
0.397	283	83	976	290	43	11	289	32	-566	-20	-805	277	3	29	83	-24
0.39725	292	78	974	288	44	8	292	30	-580	1	-797	259	1	34	24	-29
0.3975	294	82	978	284	43	10	288	29	-596	16	-777	244	9	37	-38	-30
0.39775	299	76	968	287	40	11	282	32	-607	27	-760	226	10	46	-101	-32
0.398	301	80	961	285	40	8	280	30	-623	36	-733	209	13	52	-164	-34
0.39825	309	73	961	285	43	10	281	29	-640	37	-711	195	12	60	-233	-37
0.3985	314	81	957	282	40	11	278	31	-652	41	-684	182	14	64	-303	-40
0.39875	319	78	951	281	43	15	278	34	-670	39	-656	175	15	74	-371	-42
0.399	326	78	939	277	45	9	278	30	-680	39	-626	164	16	75	-434	-42
0.39925	331	73	944	276	45	9	281	30	-698	33	-604	150	20	80	-489	-41
0.3995	338	74	933	273	45	13	286	30	-702	26	-582	136	22	80	-533	-46
0.39975	342	78	928	273	48	10	291	28	-714	16	-557	122	27	81	-565	-45
0.4	351	67	923	267	45	8	297	30	-722	3	-534	107	28	81	-578	-47
0.40025	353	71	914	269	44	13	298	32	-739	-12	-517	94	31	85	-576	-49
0.4005	362	72	906	262	47	12	303	31	-747	-35	-501	73	27	88	-569	-50
0.40075	368	72	899	264	48	13	310	31	-761	-61	-490	68	30	90	-551	-52
0.401	374	66	894	255	50	11	312	32	-774	-80	-476	53	30	88	-523	-51
0.40125	378	75	889	256	48	15	311	29	-786	-98	-463	40	34	94	-497	-49
0.4015	390	68	881	250	52	13	317	27	-794	-107	-460	23	38	95	-466	-48
0.40175	394	70	877	247	54	14	320	31	-810	-112	-450	13	41	95	-427	-46
0.402	401	67	865	241	49	12	321	31	-819	-113	-437	-2	41	98	-388	-43
0.40225	405	72	857	242	50	13	322	28	-834	-114	-430	-15	47	98	-335	-42
0.4025	412	72	852	232	54	15	320	30	-846	-116	-424	-27	41	103	-279	-41
0.40275	424	73	840	236	54	20	313	32	-860	-115	-409	-36	44	98	-212	-46
0.403	424	71	836	229	54	16	317	32	-872	-116	-403	-49	43	100	-141	-45
0.40325	436	73	832	221	53	15	315	28	-877	-119	-394	-53	45	101	-73	-48
0.4035	443	71	823	220	56	18	309	30	-894	-115	-394	-68	49	100	-4	-49
0.40375	451	73	813	220	56	18	304	30	-901	-109	-381	-78	46	99	64	-53
0.404	456	72	807	219	57	21	304	30	-914	-94	-378	-88	47	103	132	-56
0.40425	462	74	802	210	57	17	297	31	-923	-74	-371	-97	51	103	200	-61
0.4045	471	75	793	215	57	20	294	29	-933	-61	-367	-105	51	104	269	-60
0.40475	478	74	786	210	60	16	297	31	-942	-43	-361	-118	49	103	336	-61
0.405	485	74	779	213	61	24	298	33	-953	-33	-355	-123	46	110	400	-65
0.40525	494	72	768	208	59	23	300	32	-960	-23	-348	-134	50	105	458	-69
0.4055	503	71	764	209	59	21	303	30	-964	-16	-339	-137	54	101	506	-71
0.40575	510	66	759	206	65	16	308	32	-976	0	-337	-148	48	96	543	-74
0.406	519	68	752	204	61	21	308	34	-978	25	-324	-156	44	90	556	-77
0.40625	524	71	744	204	65	23	316	32	-987	44	-317	-167	47	85	545	-76
0.4065	529	67	731	199	64	22	320	36	-990	60	-306	-172	46	81	506	-74
0.40675	538	66	729	204	63	20	322	34	-1000	77	-298	-181	45	80	442	-72
0.407	542	66	722	205	58	25	322	36	-1004	65	-288	-195	44	78	361	-69
0.40725	553	72	713	202	64	23	322	37	-1009	57	-275	-204	38	78	268	-68
0.4075	563	65	705	206	65	25	323	37	-1015	38	-258	-212	32	81	179	-64
0.40775	567	65	694	201	61	24	317	39	-1020	27	-239	-222	27	83	98	-60
0.408	570	66	692	202	65	24	312	36	-1022	4	-214	-230	25	93	25	-56
0.40825	583	63	681	204	67	21	310	36	-1023	-6	-196	-238	19	100	-45	-48
0.4085	589	64	676	205	68	24	305	36	-1031	-12	-167	-245	17	116	-106	-44
